<svg width="89" height="80" viewBox="0 0 89 80" fill="none" xmlns="http://www.w3.org/2000/svg">
<path d="M72.2235 49.5504C69.8349 49.4959 67.8128 49.5038 65.7957 49.3895C62.3745 49.2105 58.9983 48.8716 55.8097 47.1658C52.5761 45.4318 50.7925 42.662 50.8167 38.9347C50.835 36.6463 51.4362 34.3887 51.8526 32.1407C52.0198 31.2628 52.4234 30.4286 52.8524 29.1711C51.1861 30.0503 49.888 30.7629 48.5617 31.4161C45.3274 33.0269 42.1563 34.7819 38.8323 36.1484C34.287 38.0456 30.7869 36.2491 29.0115 31.2473C28.3166 29.2855 28.0599 27.1383 27.6233 25.0666C27.4955 24.4428 27.4526 23.8096 27.3532 23.0574C25.0527 25.6925 22.9021 28.2335 20.6717 30.6618C15.4624 36.3244 10.4628 32.8771 8.38096 27.6625C7.82393 26.2679 7.57351 24.7101 7.31305 23.2088C7.17051 22.1995 7.54096 21.2399 8.58378 21.1199C9.52665 21 10.0158 21.8084 10.285 22.7298C10.5625 23.6355 10.7851 24.5695 11.1493 25.4251C11.5766 26.4247 12.019 27.4338 12.6197 28.333C14.3136 30.8582 16.1423 31.2517 18.3723 29.3878C19.949 28.0761 21.3442 26.5044 22.7378 24.9734C24.0348 23.5492 25.2734 22.0465 26.5121 20.5439C27.1589 19.7785 27.8357 19.0318 28.9082 19.3068C30.1406 19.6193 30.3614 20.7821 30.5705 21.8541C30.8444 23.2175 30.925 24.6062 31.2689 25.9507C31.6824 27.6526 32.1343 29.3576 32.7828 30.9558C33.6691 33.1212 34.8113 33.7535 36.9189 33.1718C38.9331 32.6153 40.9607 31.9208 42.8586 31.0196C46.9143 29.0663 50.8834 26.9752 54.8609 24.8685C55.8041 24.3724 56.6587 24.1554 57.5027 24.9352C58.31 25.6713 58.1861 26.6181 57.8473 27.5557C57.2398 29.2239 56.5557 30.886 56.0315 32.5855C55.5774 34.078 55.1366 35.6207 54.9489 37.1758C54.4379 41.3299 55.8488 43.6359 59.5606 45.147C62.3499 46.2889 65.2411 46.8257 68.1793 46.9737C70.2964 47.088 72.4118 47.0549 74.5172 47.0782C75.6316 47.0867 76.7843 47.0983 77.3047 48.449C77.7818 49.7307 77.0816 50.6717 76.353 51.5532C76.038 51.9203 75.6713 52.2341 75.3196 52.5572C74.6012 53.1942 73.9111 53.8907 73.1345 54.4493C67.3866 58.6454 66.6695 64.6147 68.3721 71.3689C68.6894 72.6132 69.3715 73.7725 69.922 74.9539C70.1898 75.5399 70.6291 76.0661 70.8269 76.671C70.9782 77.1003 71.026 77.7994 70.7927 78.0504C70.5426 78.3327 69.8963 78.3458 69.4982 78.3053C68.6338 78.2026 67.7548 77.5262 67.2456 76.8307C66.2421 75.4491 65.2821 73.9483 64.6952 72.3469C63.3818 68.8056 63.1362 65.0973 63.5069 61.3571C63.824 58.1687 65.3349 55.6659 67.4884 53.6076C68.9118 52.2835 70.4218 51.0973 72.2235 49.5504Z" fill="#131313"/>
</svg>
