<svg width="1440" height="1024" fill="none" xmlns="http://www.w3.org/2000/svg"><g clip-path="url(#a)"><path fill="url(#b)" d="M0 0h1440v1024H0z"/><g filter="url(#c)"><path d="M112 241c-100.937-21.702-264-14-264-14l34 919.33 1650 38V774.326L1440 493s-140.22-12.535-228-32c-138.44-30.699-205.22-84.588-342-122-121.45-33.22-190.148-60.142-316-64-161.975-4.966-275.339 1.833-442-34Z" fill="url(#d)"/></g><path fill-rule="evenodd" clip-rule="evenodd" d="m-124 738 62 57c22 22 80 31.794 150-32.869 70-64.662 88-99.631 132-123.631s100 123.631 143 129.337c43 5.706 97 12.6 151-70.368C568 614.5 625 688.5 669 724.5c43 36 65 51 108 0 44-50 89-103.5 132-153.5 44-51 88-51 131-15 44 36 87 60.5 130 82.5 44 21 64 28.369 120-24s92 44 142 110 22-122 22-122v650H14L-124 738Z" fill="url(#e)"/><path d="M216 900.228C125.354 912.844-90 1470.23-90 1470.23l44 36 1506-96 72-440.057s-38.35-86.255-72-85.945c-90.56.833-133.5-98.997-174-180-92-184-112 110-200 100-116.382-13.225-215.238-152-232-184-44-84.001 13.282 82.508-66-38-50-76-128.192 200.131-192 203.945-70.64 4.224-89.267 106.451-156 130-98.852 34.884-120.174-30.396-224-15.945Z" fill="url(#f)"/><path d="M228 897.029c-96.759-29.027-250 36-250 36l-58 312.001 1530-26V957.029s-101.64-37.999-244-37.999c-86 0-76-114-262-84-80.418 12.97-157.582 136.457-239 139-80.667 2.519-99.678-85.529-178-105-113.286-28.164-179 63.999-299 27.999Z" fill="url(#g)"/><path d="M228 753C174.286 659-18 623-18 623l-50 610 750-34s61.404-9.34-34-132c-98-126-181.712-123.013-270-148-106-30-96.286-72-150-166Z" fill="url(#h)"/><path d="M1269 693c59.54-38.122 174-50 174-50l60 608H813s41.488-72.72 58-114c21.665-54.16 77.227-92.72 114-138 47.12-58.019 75.66-65.499 146-110 98-62 59.16-145.524 138-196Z" fill="url(#i)"/><circle cx="1208" cy="160" r="50" fill="url(#j)"/></g><defs><linearGradient id="b" x1="182.5" y1="24" x2="1367.5" y2="1078.5" gradientUnits="userSpaceOnUse"><stop stop-color="#1B1B1B"/><stop offset="1" stop-color="#131313"/></linearGradient><linearGradient id="d" x1="624.901" y1="187.893" x2="624.901" y2="768.984" gradientUnits="userSpaceOnUse"><stop stop-color="#555"/><stop offset="1" stop-color="#101010"/></linearGradient><linearGradient id="e" x1="710" y1="511.369" x2="699.999" y2="1740.37" gradientUnits="userSpaceOnUse"><stop stop-color="#132E0F"/><stop offset="1" stop-color="#A13F82"/></linearGradient><linearGradient id="f" x1="724" y1="686.173" x2="724" y2="1700.17" gradientUnits="userSpaceOnUse"><stop stop-color="#CEF62E"/><stop offset="1" stop-color="#5FC469"/></linearGradient><linearGradient id="g" x1="685" y1="751.03" x2="658" y2="1285.03" gradientUnits="userSpaceOnUse"><stop stop-color="#BFED07"/><stop offset="1" stop-color="#928E37"/></linearGradient><linearGradient id="h" x1="311" y1="525" x2="311.098" y2="1233" gradientUnits="userSpaceOnUse"><stop stop-color="#DDFF54"/><stop offset="1" stop-color="#CEF62E"/></linearGradient><linearGradient id="i" x1="1186.92" y1="545.321" x2="1196.54" y2="1366" gradientUnits="userSpaceOnUse"><stop stop-color="#CEF62E"/><stop offset="1" stop-color="#1B1B1B"/></linearGradient><radialGradient id="j" cx="0" cy="0" r="1" gradientUnits="userSpaceOnUse" gradientTransform="rotate(42.668 420.356 1563.6) scale(156.4)"><stop offset=".254" stop-color="#CEF62E"/><stop offset="1" stop-color="#2C2C2C"/></radialGradient><clipPath id="a"><path fill="#fff" d="M0 0h1440v1024H0z"/></clipPath><filter id="c" x="-435" y="-57.327" width="2250" height="1524.66" filterUnits="userSpaceOnUse" color-interpolation-filters="sRGB"><feFlood flood-opacity="0" result="BackgroundImageFix"/><feGaussianBlur in="BackgroundImageFix" stdDeviation="52"/><feComposite in2="SourceAlpha" operator="in" result="effect1_backgroundBlur_10_2"/><feBlend in="SourceGraphic" in2="effect1_backgroundBlur_10_2" result="shape"/><feGaussianBlur stdDeviation="141.5" result="effect2_foregroundBlur_10_2"/></filter></defs></svg>