<svg width="337" height="64" viewBox="0 0 337 64" fill="none" xmlns="http://www.w3.org/2000/svg">
<path d="M17.2439 5.68888V9.44764C17.2439 9.94124 17.3394 10.43 17.5247 10.8861C17.7101 11.342 17.9818 11.7564 18.3243 12.1056C18.667 12.4546 19.0737 12.7314 19.5211 12.9203C19.9687 13.1092 20.4485 13.2064 20.9329 13.2064L35.6896 13.2064C40.5815 13.2064 45.273 15.1864 48.7321 18.711C52.1911 22.2355 54.1345 27.0155 54.1345 32C54.1345 34.468 53.6574 36.9119 52.7305 39.192C51.8035 41.4722 50.4449 43.544 48.7321 45.2892C47.0194 47.0343 44.986 48.4186 42.7482 49.3631C40.5104 50.3075 38.1119 50.7936 35.6896 50.7936L20.934 50.7936C20.4496 50.7934 19.9696 50.8905 19.5219 51.0793C19.0743 51.2682 18.6673 51.545 18.3248 51.8941C17.982 52.2431 17.7104 52.6575 17.5247 53.1137C17.3394 53.5698 17.2439 54.0586 17.2439 54.5523V58.3111L35.6888 58.3111C39.0799 58.3111 42.4377 57.6305 45.5706 56.3083C48.7036 54.986 51.5502 53.0479 53.948 50.6047C56.3459 48.1615 58.2479 45.261 59.5456 42.0688C60.8433 38.8766 61.5111 35.4552 61.5111 32C61.5111 25.022 58.7906 18.3295 53.948 13.3953C49.1053 8.46101 42.5373 5.68888 35.6888 5.68888L17.2439 5.68888Z" fill="white"/>
<path d="M46.7572 32C46.7572 29.0094 45.5913 26.1414 43.5159 24.0269C41.4406 21.9121 38.6258 20.7242 35.6908 20.7242L17.2445 20.7242C15.2877 20.7242 13.4114 19.9321 12.0278 18.5224C10.6443 17.1126 9.86685 15.2005 9.86685 13.2067V5.68915H2.48888V13.2064C2.48888 17.1938 4.04343 21.018 6.81058 23.8378C9.57801 26.6573 13.3312 28.2412 17.2445 28.2412L35.6903 28.2412C36.6686 28.2412 37.6069 28.6373 38.2988 29.342C38.9906 30.047 39.3792 31.0031 39.3792 32C39.3792 32.9969 38.9906 33.9529 38.2988 34.6578C37.6069 35.3628 36.6686 35.7588 35.6903 35.7588L17.2445 35.7588C13.3312 35.7588 9.57801 37.3428 6.81058 40.1624C4.04343 42.9819 2.48888 46.8061 2.48888 50.7936V58.3111H9.86795V50.7936C9.86795 48.8001 10.6451 46.8882 12.0284 45.4785C13.4117 44.0687 15.288 43.2766 17.2445 43.2763L35.6903 43.2763C37.1436 43.2764 38.5827 42.9848 39.9255 42.4181C41.2682 41.8514 42.4883 41.0208 43.5159 39.9737C44.5436 38.9266 45.3588 37.6835 45.9149 36.3153C46.471 34.9472 46.7573 33.4808 46.7572 32Z" fill="#CEF62E"/>
<path d="M79.752 26.192C79.112 26.192 78.416 26.176 77.664 26.144C76.928 26.112 76.2 26.064 75.48 26C74.776 25.936 74.144 25.872 73.584 25.808V22.712C74.176 22.76 74.768 22.808 75.36 22.856C75.968 22.904 76.544 22.936 77.088 22.952C77.632 22.968 78.088 22.976 78.456 22.976C79.224 22.976 79.808 22.952 80.208 22.904C80.608 22.84 80.904 22.752 81.096 22.64C81.224 22.528 81.312 22.408 81.36 22.28C81.424 22.152 81.464 22 81.48 21.824C81.496 21.648 81.504 21.448 81.504 21.224C81.504 20.888 81.48 20.624 81.432 20.432C81.4 20.224 81.32 20.064 81.192 19.952C81.08 19.84 80.904 19.76 80.664 19.712C80.424 19.648 80.112 19.592 79.728 19.544L76.344 19.112C75.688 19.032 75.152 18.872 74.736 18.632C74.32 18.376 73.992 18.04 73.752 17.624C73.512 17.208 73.344 16.72 73.248 16.16C73.152 15.584 73.104 14.944 73.104 14.24C73.104 13.152 73.264 12.288 73.584 11.648C73.904 10.992 74.344 10.496 74.904 10.16C75.48 9.808 76.144 9.576 76.896 9.464C77.664 9.352 78.496 9.296 79.392 9.296C80.032 9.296 80.696 9.32 81.384 9.368C82.072 9.4 82.72 9.456 83.328 9.536C83.936 9.6 84.44 9.68 84.84 9.776V12.8C84.44 12.736 83.968 12.688 83.424 12.656C82.896 12.608 82.344 12.576 81.768 12.56C81.192 12.528 80.648 12.512 80.136 12.512C79.512 12.512 79.016 12.536 78.648 12.584C78.28 12.616 77.992 12.688 77.784 12.8C77.56 12.928 77.416 13.096 77.352 13.304C77.304 13.512 77.28 13.776 77.28 14.096C77.28 14.496 77.312 14.808 77.376 15.032C77.44 15.24 77.584 15.384 77.808 15.464C78.032 15.544 78.376 15.616 78.84 15.68L82.128 16.064C82.576 16.112 82.984 16.192 83.352 16.304C83.736 16.416 84.08 16.592 84.384 16.832C84.704 17.072 84.968 17.416 85.176 17.864C85.288 18.072 85.376 18.328 85.44 18.632C85.504 18.92 85.56 19.256 85.608 19.64C85.656 20.024 85.68 20.456 85.68 20.936C85.68 21.88 85.584 22.68 85.392 23.336C85.2 23.976 84.928 24.488 84.576 24.872C84.224 25.24 83.8 25.528 83.304 25.736C82.808 25.928 82.256 26.048 81.648 26.096C81.056 26.16 80.424 26.192 79.752 26.192ZM88.4931 26V9.488H92.6691V26H88.4931ZM96.1103 26V9.488H101.894C103.366 9.488 104.566 9.568 105.494 9.728C106.422 9.872 107.15 10.128 107.678 10.496C108.206 10.848 108.582 11.344 108.806 11.984C109.046 12.608 109.198 13.392 109.262 14.336C109.326 15.28 109.358 16.416 109.358 17.744C109.358 19.072 109.326 20.208 109.262 21.152C109.198 22.096 109.046 22.888 108.806 23.528C108.582 24.152 108.206 24.648 107.678 25.016C107.15 25.368 106.422 25.624 105.494 25.784C104.566 25.928 103.366 26 101.894 26H96.1103ZM100.286 22.784H101.798C102.454 22.784 102.99 22.768 103.406 22.736C103.822 22.688 104.15 22.592 104.39 22.448C104.646 22.288 104.822 22.032 104.918 21.68C105.03 21.312 105.094 20.816 105.11 20.192C105.142 19.552 105.158 18.736 105.158 17.744C105.158 16.752 105.142 15.944 105.11 15.32C105.094 14.68 105.03 14.184 104.918 13.832C104.806 13.464 104.63 13.2 104.39 13.04C104.15 12.88 103.822 12.784 103.406 12.752C102.99 12.72 102.454 12.704 101.798 12.704H100.286V22.784ZM112.376 26V9.488H123.944V12.704H116.552V16.088H122.816V19.256H116.552V22.784H123.944V26H112.376ZM139.985 26.192C138.753 26.192 137.713 26.112 136.865 25.952C136.017 25.792 135.313 25.528 134.753 25.16C134.193 24.776 133.753 24.264 133.433 23.624C133.129 22.968 132.913 22.16 132.785 21.2C132.673 20.24 132.617 19.088 132.617 17.744C132.617 16.4 132.673 15.248 132.785 14.288C132.913 13.328 133.137 12.528 133.457 11.888C133.777 11.232 134.217 10.72 134.777 10.352C135.337 9.968 136.041 9.696 136.889 9.536C137.737 9.376 138.769 9.296 139.985 9.296C140.529 9.296 141.137 9.32 141.809 9.368C142.481 9.416 143.145 9.48 143.801 9.56C144.473 9.64 145.097 9.736 145.673 9.848V12.848C145.129 12.768 144.585 12.712 144.041 12.68C143.513 12.632 143.025 12.592 142.577 12.56C142.129 12.528 141.761 12.512 141.473 12.512C140.609 12.512 139.897 12.528 139.337 12.56C138.777 12.592 138.321 12.696 137.969 12.872C137.617 13.032 137.353 13.296 137.177 13.664C137.001 14.032 136.881 14.552 136.817 15.224C136.769 15.88 136.745 16.72 136.745 17.744C136.745 18.656 136.761 19.424 136.793 20.048C136.841 20.672 136.929 21.184 137.057 21.584C137.201 21.984 137.393 22.296 137.633 22.52C137.889 22.728 138.217 22.872 138.617 22.952C139.033 23.032 139.537 23.072 140.129 23.072C140.321 23.072 140.529 23.072 140.753 23.072C140.977 23.056 141.193 23.04 141.401 23.024C141.609 23.008 141.785 23 141.929 23V19.424H139.577V16.424H145.745V25.664C145.169 25.776 144.537 25.872 143.849 25.952C143.161 26.016 142.481 26.072 141.809 26.12C141.137 26.168 140.529 26.192 139.985 26.192ZM149.009 26V9.488H153.185V26H149.009ZM163.61 26.192C162.378 26.192 161.338 26.112 160.49 25.952C159.642 25.792 158.938 25.528 158.378 25.16C157.818 24.776 157.378 24.264 157.058 23.624C156.754 22.968 156.538 22.16 156.41 21.2C156.298 20.24 156.242 19.088 156.242 17.744C156.242 16.4 156.298 15.248 156.41 14.288C156.538 13.328 156.762 12.528 157.082 11.888C157.402 11.232 157.842 10.72 158.402 10.352C158.962 9.968 159.666 9.696 160.514 9.536C161.362 9.376 162.394 9.296 163.61 9.296C164.154 9.296 164.762 9.32 165.434 9.368C166.106 9.416 166.77 9.48 167.426 9.56C168.098 9.64 168.722 9.736 169.298 9.848V12.848C168.754 12.768 168.21 12.712 167.666 12.68C167.138 12.632 166.65 12.592 166.202 12.56C165.754 12.528 165.386 12.512 165.098 12.512C164.234 12.512 163.522 12.528 162.962 12.56C162.402 12.592 161.946 12.696 161.594 12.872C161.242 13.032 160.978 13.296 160.802 13.664C160.626 14.032 160.506 14.552 160.442 15.224C160.394 15.88 160.37 16.72 160.37 17.744C160.37 18.656 160.386 19.424 160.418 20.048C160.466 20.672 160.554 21.184 160.682 21.584C160.826 21.984 161.018 22.296 161.258 22.52C161.514 22.728 161.842 22.872 162.242 22.952C162.658 23.032 163.162 23.072 163.754 23.072C163.946 23.072 164.154 23.072 164.378 23.072C164.602 23.056 164.818 23.04 165.026 23.024C165.234 23.008 165.41 23 165.554 23V19.424H163.202V16.424H169.37V25.664C168.794 25.776 168.162 25.872 167.474 25.952C166.786 26.016 166.106 26.072 165.434 26.12C164.762 26.168 164.154 26.192 163.61 26.192ZM172.298 16.112V14.672C172.762 14.672 173.106 14.632 173.33 14.552C173.554 14.456 173.706 14.304 173.786 14.096C173.866 13.872 173.906 13.552 173.906 13.136V12.752H172.466V9.488H176.354V11.912C176.354 12.76 176.306 13.456 176.21 14C176.13 14.544 175.954 14.968 175.682 15.272C175.41 15.576 175.002 15.792 174.458 15.92C173.93 16.048 173.21 16.112 172.298 16.112ZM185.666 26.192C185.026 26.192 184.33 26.176 183.578 26.144C182.842 26.112 182.114 26.064 181.394 26C180.69 25.936 180.058 25.872 179.498 25.808V22.712C180.09 22.76 180.682 22.808 181.274 22.856C181.882 22.904 182.458 22.936 183.002 22.952C183.546 22.968 184.002 22.976 184.37 22.976C185.138 22.976 185.722 22.952 186.122 22.904C186.522 22.84 186.818 22.752 187.01 22.64C187.138 22.528 187.226 22.408 187.274 22.28C187.338 22.152 187.378 22 187.394 21.824C187.41 21.648 187.418 21.448 187.418 21.224C187.418 20.888 187.394 20.624 187.346 20.432C187.314 20.224 187.234 20.064 187.106 19.952C186.994 19.84 186.818 19.76 186.578 19.712C186.338 19.648 186.026 19.592 185.642 19.544L182.258 19.112C181.602 19.032 181.066 18.872 180.65 18.632C180.234 18.376 179.906 18.04 179.666 17.624C179.426 17.208 179.258 16.72 179.162 16.16C179.066 15.584 179.018 14.944 179.018 14.24C179.018 13.152 179.178 12.288 179.498 11.648C179.818 10.992 180.258 10.496 180.818 10.16C181.394 9.808 182.058 9.576 182.81 9.464C183.578 9.352 184.41 9.296 185.306 9.296C185.946 9.296 186.61 9.32 187.298 9.368C187.986 9.4 188.634 9.456 189.242 9.536C189.85 9.6 190.354 9.68 190.754 9.776V12.8C190.354 12.736 189.882 12.688 189.338 12.656C188.81 12.608 188.258 12.576 187.682 12.56C187.106 12.528 186.562 12.512 186.05 12.512C185.426 12.512 184.93 12.536 184.562 12.584C184.194 12.616 183.906 12.688 183.698 12.8C183.474 12.928 183.33 13.096 183.266 13.304C183.218 13.512 183.194 13.776 183.194 14.096C183.194 14.496 183.226 14.808 183.29 15.032C183.354 15.24 183.498 15.384 183.722 15.464C183.946 15.544 184.29 15.616 184.754 15.68L188.042 16.064C188.49 16.112 188.898 16.192 189.266 16.304C189.65 16.416 189.994 16.592 190.298 16.832C190.618 17.072 190.882 17.416 191.09 17.864C191.202 18.072 191.29 18.328 191.354 18.632C191.418 18.92 191.474 19.256 191.522 19.64C191.57 20.024 191.594 20.456 191.594 20.936C191.594 21.88 191.498 22.68 191.306 23.336C191.114 23.976 190.842 24.488 190.49 24.872C190.138 25.24 189.714 25.528 189.218 25.736C188.722 25.928 188.17 26.048 187.562 26.096C186.97 26.16 186.338 26.192 185.666 26.192ZM200.477 26V9.488H206.261C207.733 9.488 208.933 9.568 209.861 9.728C210.789 9.872 211.517 10.128 212.045 10.496C212.573 10.848 212.949 11.344 213.173 11.984C213.413 12.608 213.565 13.392 213.629 14.336C213.693 15.28 213.725 16.416 213.725 17.744C213.725 19.072 213.693 20.208 213.629 21.152C213.565 22.096 213.413 22.888 213.173 23.528C212.949 24.152 212.573 24.648 212.045 25.016C211.517 25.368 210.789 25.624 209.861 25.784C208.933 25.928 207.733 26 206.261 26H200.477ZM204.653 22.784H206.165C206.821 22.784 207.357 22.768 207.773 22.736C208.189 22.688 208.517 22.592 208.757 22.448C209.013 22.288 209.189 22.032 209.285 21.68C209.397 21.312 209.461 20.816 209.477 20.192C209.509 19.552 209.525 18.736 209.525 17.744C209.525 16.752 209.509 15.944 209.477 15.32C209.461 14.68 209.397 14.184 209.285 13.832C209.173 13.464 208.997 13.2 208.757 13.04C208.517 12.88 208.189 12.784 207.773 12.752C207.357 12.72 206.821 12.704 206.165 12.704H204.653V22.784ZM216.743 26V9.488H228.311V12.704H220.919V16.088H227.183V19.256H220.919V22.784H228.311V26H216.743ZM237.346 26.192C236.706 26.192 236.01 26.176 235.258 26.144C234.522 26.112 233.794 26.064 233.074 26C232.37 25.936 231.738 25.872 231.178 25.808V22.712C231.77 22.76 232.362 22.808 232.954 22.856C233.562 22.904 234.138 22.936 234.682 22.952C235.226 22.968 235.682 22.976 236.05 22.976C236.818 22.976 237.402 22.952 237.802 22.904C238.202 22.84 238.498 22.752 238.69 22.64C238.818 22.528 238.906 22.408 238.954 22.28C239.018 22.152 239.058 22 239.074 21.824C239.09 21.648 239.098 21.448 239.098 21.224C239.098 20.888 239.074 20.624 239.026 20.432C238.994 20.224 238.914 20.064 238.786 19.952C238.674 19.84 238.498 19.76 238.258 19.712C238.018 19.648 237.706 19.592 237.322 19.544L233.938 19.112C233.282 19.032 232.746 18.872 232.33 18.632C231.914 18.376 231.586 18.04 231.346 17.624C231.106 17.208 230.938 16.72 230.842 16.16C230.746 15.584 230.698 14.944 230.698 14.24C230.698 13.152 230.858 12.288 231.178 11.648C231.498 10.992 231.938 10.496 232.498 10.16C233.074 9.808 233.738 9.576 234.49 9.464C235.258 9.352 236.09 9.296 236.986 9.296C237.626 9.296 238.29 9.32 238.978 9.368C239.666 9.4 240.314 9.456 240.922 9.536C241.53 9.6 242.034 9.68 242.434 9.776V12.8C242.034 12.736 241.562 12.688 241.018 12.656C240.49 12.608 239.938 12.576 239.362 12.56C238.786 12.528 238.242 12.512 237.73 12.512C237.106 12.512 236.61 12.536 236.242 12.584C235.874 12.616 235.586 12.688 235.378 12.8C235.154 12.928 235.01 13.096 234.946 13.304C234.898 13.512 234.874 13.776 234.874 14.096C234.874 14.496 234.906 14.808 234.97 15.032C235.034 15.24 235.178 15.384 235.402 15.464C235.626 15.544 235.97 15.616 236.434 15.68L239.722 16.064C240.17 16.112 240.578 16.192 240.946 16.304C241.33 16.416 241.674 16.592 241.978 16.832C242.298 17.072 242.562 17.416 242.77 17.864C242.882 18.072 242.97 18.328 243.034 18.632C243.098 18.92 243.154 19.256 243.202 19.64C243.25 20.024 243.274 20.456 243.274 20.936C243.274 21.88 243.178 22.68 242.986 23.336C242.794 23.976 242.522 24.488 242.17 24.872C241.818 25.24 241.394 25.528 240.898 25.736C240.402 25.928 239.85 26.048 239.242 26.096C238.65 26.16 238.018 26.192 237.346 26.192ZM246.087 26V9.488H250.263V26H246.087ZM260.688 26.192C259.456 26.192 258.416 26.112 257.568 25.952C256.72 25.792 256.016 25.528 255.456 25.16C254.896 24.776 254.456 24.264 254.136 23.624C253.832 22.968 253.616 22.16 253.488 21.2C253.376 20.24 253.32 19.088 253.32 17.744C253.32 16.4 253.376 15.248 253.488 14.288C253.616 13.328 253.84 12.528 254.16 11.888C254.48 11.232 254.92 10.72 255.48 10.352C256.04 9.968 256.744 9.696 257.592 9.536C258.44 9.376 259.472 9.296 260.688 9.296C261.232 9.296 261.84 9.32 262.512 9.368C263.184 9.416 263.848 9.48 264.504 9.56C265.176 9.64 265.8 9.736 266.376 9.848V12.848C265.832 12.768 265.288 12.712 264.744 12.68C264.216 12.632 263.728 12.592 263.28 12.56C262.832 12.528 262.464 12.512 262.176 12.512C261.312 12.512 260.6 12.528 260.04 12.56C259.48 12.592 259.024 12.696 258.672 12.872C258.32 13.032 258.056 13.296 257.88 13.664C257.704 14.032 257.584 14.552 257.52 15.224C257.472 15.88 257.448 16.72 257.448 17.744C257.448 18.656 257.464 19.424 257.496 20.048C257.544 20.672 257.632 21.184 257.76 21.584C257.904 21.984 258.096 22.296 258.336 22.52C258.592 22.728 258.92 22.872 259.32 22.952C259.736 23.032 260.24 23.072 260.832 23.072C261.024 23.072 261.232 23.072 261.456 23.072C261.68 23.056 261.896 23.04 262.104 23.024C262.312 23.008 262.488 23 262.632 23V19.424H260.28V16.424H266.448V25.664C265.872 25.776 265.24 25.872 264.552 25.952C263.864 26.016 263.184 26.072 262.512 26.12C261.84 26.168 261.232 26.192 260.688 26.192ZM269.712 26V9.488H274.008L279.384 18.344H279.504V9.488H283.512V26H279.6L273.84 16.328H273.72V26H269.712Z" fill="#CEF62E"/>
<path d="M292.985 26V9.488H297.161V22.64H303.593V26H292.985ZM304.34 26L309.572 9.488H315.26L320.516 26H316.292L315.308 22.76H309.428L308.468 26H304.34ZM310.316 19.616H314.396L312.428 13.088H312.26L310.316 19.616ZM322.423 26V9.488H330.751C331.807 9.488 332.679 9.64 333.367 9.944C334.071 10.248 334.591 10.712 334.927 11.336C335.279 11.944 335.455 12.712 335.455 13.64C335.455 14.408 335.351 15.056 335.143 15.584C334.935 16.112 334.615 16.536 334.183 16.856C333.767 17.16 333.231 17.384 332.575 17.528V17.624C333.279 17.768 333.847 17.992 334.279 18.296C334.727 18.6 335.055 19.024 335.263 19.568C335.471 20.096 335.575 20.776 335.575 21.608C335.575 22.296 335.487 22.912 335.311 23.456C335.151 24 334.879 24.464 334.495 24.848C334.127 25.216 333.631 25.504 333.007 25.712C332.399 25.904 331.647 26 330.751 26H322.423ZM326.575 22.88H329.287C329.863 22.88 330.303 22.832 330.607 22.736C330.911 22.624 331.119 22.432 331.231 22.16C331.343 21.888 331.399 21.504 331.399 21.008C331.399 20.496 331.343 20.104 331.231 19.832C331.119 19.56 330.903 19.376 330.583 19.28C330.279 19.168 329.847 19.112 329.287 19.112H326.575V22.88ZM326.575 16.208H329.215C329.759 16.208 330.183 16.16 330.487 16.064C330.791 15.952 330.999 15.768 331.111 15.512C331.239 15.256 331.303 14.896 331.303 14.432C331.303 13.936 331.247 13.56 331.135 13.304C331.039 13.048 330.839 12.872 330.535 12.776C330.247 12.68 329.807 12.632 329.215 12.632H326.575V16.208Z" fill="white"/>
<path d="M82.3261 58L80.7901 49.456H80.7101L79.1741 58H77.2061L75.3181 46.992H76.8381L78.2141 56.032H78.3261L79.9101 46.992H81.6381L83.2541 56.032H83.3341L84.6781 46.992H86.1821L84.2941 58H82.3261ZM88.6058 58.128C87.8911 58.128 87.3738 57.952 87.0538 57.6C86.7444 57.2373 86.5898 56.6133 86.5898 55.728C86.5898 55.1093 86.6484 54.6293 86.7658 54.288C86.8938 53.936 87.1018 53.6853 87.3898 53.536C87.6884 53.376 88.1044 53.296 88.6378 53.296C89.1178 53.296 89.7631 53.3173 90.5738 53.36V52.848C90.5738 52.2293 90.5311 51.792 90.4458 51.536C90.3604 51.2693 90.2058 51.0987 89.9818 51.024C89.7684 50.9493 89.4004 50.912 88.8778 50.912C88.4298 50.912 87.7951 50.96 86.9738 51.056V49.952C87.6884 49.792 88.4564 49.712 89.2778 49.712C90.0458 49.712 90.6218 49.808 91.0058 50C91.3898 50.192 91.6511 50.512 91.7898 50.96C91.9284 51.3973 91.9978 52.0373 91.9978 52.88V58H90.7018L90.6378 56.928H90.5418C90.3818 57.408 90.1311 57.728 89.7898 57.888C89.4484 58.048 89.0538 58.128 88.6058 58.128ZM89.1498 56.928C89.4484 56.928 89.6938 56.8907 89.8858 56.816C90.0778 56.7413 90.2271 56.5867 90.3338 56.352C90.4938 55.9787 90.5738 55.456 90.5738 54.784V54.288H89.0378C88.7391 54.288 88.5151 54.32 88.3658 54.384C88.2271 54.448 88.1311 54.5707 88.0778 54.752C88.0244 54.9333 87.9978 55.2213 87.9978 55.616C87.9978 55.9893 88.0244 56.2667 88.0778 56.448C88.1418 56.6293 88.2538 56.7573 88.4138 56.832C88.5738 56.896 88.8191 56.928 89.1498 56.928ZM95.0707 58L92.9908 49.84H94.4468L95.9508 56.352H96.0628L97.5508 49.84H98.9908L96.9108 58H95.0707ZM100.162 47.632V46.112H101.634V47.632H100.162ZM100.194 58V49.84H101.618V58H100.194ZM107.443 53.328C107.443 52.592 107.411 52.0693 107.347 51.76C107.294 51.44 107.187 51.232 107.027 51.136C106.867 51.04 106.595 50.992 106.211 50.992C105.795 50.992 105.491 51.088 105.299 51.28C105.118 51.472 105.001 51.7493 104.947 52.112C104.905 52.464 104.883 53.008 104.883 53.744V58H103.459V49.84H104.739L104.803 50.928H104.899C105.038 50.5227 105.262 50.2187 105.571 50.016C105.881 49.8133 106.302 49.712 106.835 49.712C107.411 49.712 107.843 49.8187 108.131 50.032C108.419 50.2453 108.611 50.5653 108.707 50.992C108.814 51.4187 108.867 52.0213 108.867 52.8V58H107.443V53.328ZM112.95 61.184C112.203 61.184 111.483 61.136 110.79 61.04V59.936C111.014 59.936 111.297 59.9467 111.638 59.968L112.662 59.984C113.259 59.984 113.686 59.9147 113.942 59.776C114.198 59.6373 114.363 59.392 114.438 59.04C114.523 58.688 114.566 58.1067 114.566 57.296V56.976H114.47C114.331 57.3707 114.113 57.648 113.814 57.808C113.515 57.968 113.131 58.048 112.662 58.048C112.065 58.048 111.606 57.9307 111.286 57.696C110.977 57.4613 110.758 57.0507 110.63 56.464C110.502 55.8773 110.438 55.024 110.438 53.904C110.438 52.7627 110.502 51.8987 110.63 51.312C110.758 50.7147 110.977 50.2987 111.286 50.064C111.606 49.8293 112.065 49.712 112.662 49.712C113.11 49.712 113.494 49.7973 113.814 49.968C114.145 50.1387 114.385 50.4587 114.534 50.928H114.63L114.694 49.84H115.99V56.864C115.99 58.016 115.926 58.88 115.798 59.456C115.67 60.0427 115.387 60.4747 114.95 60.752C114.523 61.04 113.857 61.184 112.95 61.184ZM113.222 56.8C113.574 56.8 113.841 56.7307 114.022 56.592C114.214 56.4533 114.347 56.2187 114.422 55.888C114.518 55.472 114.566 54.8107 114.566 53.904C114.566 53.008 114.529 52.384 114.454 52.032C114.379 51.648 114.246 51.3813 114.054 51.232C113.873 51.072 113.595 50.992 113.222 50.992C112.785 50.992 112.475 51.056 112.294 51.184C112.123 51.3013 112.006 51.552 111.942 51.936C111.889 52.32 111.862 52.976 111.862 53.904C111.862 54.8213 111.889 55.472 111.942 55.856C112.006 56.24 112.129 56.496 112.31 56.624C112.491 56.7413 112.795 56.8 113.222 56.8ZM123.552 58.128C123.126 58.128 122.656 58.1067 122.144 58.064C121.632 58.0213 121.179 57.968 120.784 57.904V56.64C121.702 56.7573 122.475 56.816 123.104 56.816C123.51 56.816 123.83 56.7893 124.064 56.736C124.31 56.672 124.502 56.5707 124.64 56.432C124.768 56.304 124.854 56.1227 124.896 55.888C124.939 55.6533 124.96 55.344 124.96 54.96C124.96 54.4373 124.934 54.0693 124.88 53.856C124.838 53.632 124.731 53.4773 124.56 53.392C124.4 53.296 124.118 53.216 123.712 53.152L121.984 52.864C121.408 52.768 121.024 52.496 120.832 52.048C120.651 51.5893 120.56 50.9013 120.56 49.984C120.56 48.832 120.806 48.0267 121.296 47.568C121.798 47.0987 122.566 46.864 123.6 46.864C124.048 46.864 124.496 46.8907 124.944 46.944C125.403 46.9867 125.771 47.0453 126.048 47.12V48.352C125.366 48.2347 124.672 48.176 123.968 48.176C123.531 48.176 123.19 48.208 122.944 48.272C122.699 48.336 122.512 48.4373 122.384 48.576C122.256 48.7147 122.171 48.8907 122.128 49.104C122.086 49.3173 122.064 49.6 122.064 49.952C122.064 50.4 122.086 50.7253 122.128 50.928C122.171 51.12 122.251 51.2587 122.368 51.344C122.496 51.4187 122.704 51.4773 122.992 51.52L124.624 51.792C125.051 51.8667 125.392 51.9893 125.648 52.16C125.915 52.32 126.123 52.592 126.272 52.976C126.4 53.3387 126.464 53.9413 126.464 54.784C126.464 55.648 126.363 56.3253 126.16 56.816C125.968 57.296 125.664 57.6373 125.248 57.84C124.832 58.032 124.267 58.128 123.552 58.128ZM128.33 58V51.04H127.21V49.84H128.33V47.472H129.77V49.84H131.114V51.04H129.77V58H128.33ZM134.863 58.128C133.989 58.128 133.354 58.016 132.959 57.792C132.575 57.5573 132.325 57.1627 132.207 56.608C132.101 56.0533 132.047 55.1573 132.047 53.92C132.047 52.6827 132.101 51.7867 132.207 51.232C132.325 50.6773 132.575 50.288 132.959 50.064C133.354 49.8293 133.989 49.712 134.863 49.712C135.738 49.712 136.367 49.8293 136.751 50.064C137.146 50.288 137.397 50.6773 137.503 51.232C137.621 51.7867 137.679 52.6827 137.679 53.92C137.679 55.1573 137.621 56.0533 137.503 56.608C137.397 57.1627 137.146 57.5573 136.751 57.792C136.367 58.016 135.738 58.128 134.863 58.128ZM134.863 56.928C135.322 56.928 135.642 56.864 135.823 56.736C136.015 56.5973 136.133 56.336 136.175 55.952C136.229 55.568 136.255 54.8907 136.255 53.92C136.255 52.9493 136.229 52.272 136.175 51.888C136.133 51.504 136.015 51.248 135.823 51.12C135.642 50.9813 135.322 50.912 134.863 50.912C134.394 50.912 134.069 50.9813 133.887 51.12C133.706 51.248 133.589 51.504 133.535 51.888C133.493 52.2613 133.471 52.9387 133.471 53.92C133.471 54.9013 133.493 55.584 133.535 55.968C133.589 56.3413 133.706 56.5973 133.887 56.736C134.069 56.864 134.394 56.928 134.863 56.928ZM139.272 49.84H140.552L140.616 51.312H140.712C140.861 50.704 141.101 50.288 141.432 50.064C141.762 49.8293 142.205 49.712 142.76 49.712V51.152C142.226 51.152 141.81 51.2587 141.512 51.472C141.213 51.6747 141 52 140.872 52.448C140.754 52.8853 140.696 53.472 140.696 54.208V58H139.272V49.84ZM143.943 47.632V46.112H145.415V47.632H143.943ZM143.975 58V49.84H145.399V58H143.975ZM152.441 54.368H148.409C148.409 55.1573 148.446 55.7227 148.521 56.064C148.595 56.3947 148.75 56.624 148.985 56.752C149.23 56.8693 149.641 56.928 150.217 56.928C150.803 56.928 151.47 56.8747 152.217 56.768V57.888C151.961 57.952 151.614 58.0053 151.177 58.048C150.75 58.1013 150.334 58.128 149.929 58.128C149.043 58.128 148.393 58 147.977 57.744C147.571 57.488 147.305 57.0827 147.177 56.528C147.059 55.9627 147.001 55.0987 147.001 53.936C147.001 52.784 147.054 51.9307 147.161 51.376C147.278 50.8107 147.534 50.3947 147.929 50.128C148.323 49.8507 148.958 49.712 149.833 49.712C150.665 49.712 151.262 49.84 151.625 50.096C151.987 50.352 152.211 50.752 152.297 51.296C152.393 51.84 152.441 52.7147 152.441 53.92V54.368ZM149.801 50.88C149.374 50.88 149.065 50.9387 148.873 51.056C148.691 51.1733 148.569 51.3973 148.505 51.728C148.451 52.0587 148.419 52.608 148.409 53.376H151.081V53.248C151.081 52.5227 151.043 52 150.969 51.68C150.905 51.3493 150.787 51.136 150.617 51.04C150.446 50.9333 150.174 50.88 149.801 50.88ZM156.133 58.128C155.781 58.128 155.391 58.1067 154.965 58.064C154.538 58.0213 154.175 57.9733 153.877 57.92V56.8C154.517 56.896 155.194 56.944 155.909 56.944C156.282 56.944 156.565 56.9013 156.757 56.816C156.949 56.7307 157.071 56.608 157.125 56.448C157.189 56.2773 157.221 56.0427 157.221 55.744C157.221 55.392 157.199 55.1413 157.157 54.992C157.125 54.832 157.061 54.7307 156.965 54.688C156.869 54.6347 156.703 54.592 156.469 54.56L154.933 54.336C154.463 54.2613 154.138 54.064 153.957 53.744C153.775 53.4133 153.685 52.8693 153.685 52.112C153.685 51.184 153.898 50.5547 154.325 50.224C154.762 49.8827 155.407 49.712 156.261 49.712C156.613 49.712 156.975 49.7333 157.349 49.776C157.733 49.8187 158.037 49.872 158.261 49.936V51.056C157.727 50.9493 157.103 50.896 156.389 50.896C155.909 50.896 155.573 50.976 155.381 51.136C155.189 51.2853 155.093 51.5947 155.093 52.064C155.093 52.384 155.109 52.6187 155.141 52.768C155.183 52.9067 155.247 53.0027 155.333 53.056C155.429 53.1093 155.583 53.152 155.797 53.184L157.205 53.376C157.535 53.4187 157.797 53.5093 157.989 53.648C158.191 53.776 158.346 54 158.453 54.32C158.559 54.6293 158.613 55.0827 158.613 55.68C158.613 56.608 158.415 57.248 158.021 57.6C157.626 57.952 156.997 58.128 156.133 58.128ZM159.796 59.344C160.042 59.344 160.223 59.312 160.34 59.248C160.458 59.1947 160.532 59.0933 160.564 58.944C160.607 58.7947 160.628 58.5653 160.628 58.256V58H160.02V56.368H161.636V57.76C161.636 58.4 161.594 58.8747 161.508 59.184C161.423 59.4933 161.252 59.712 160.996 59.84C160.74 59.968 160.34 60.032 159.796 60.032V59.344ZM169.146 58.128C168.719 58.128 168.25 58.1067 167.738 58.064C167.226 58.0213 166.773 57.968 166.378 57.904V56.64C167.295 56.7573 168.069 56.816 168.698 56.816C169.103 56.816 169.423 56.7893 169.658 56.736C169.903 56.672 170.095 56.5707 170.234 56.432C170.362 56.304 170.447 56.1227 170.49 55.888C170.533 55.6533 170.554 55.344 170.554 54.96C170.554 54.4373 170.527 54.0693 170.474 53.856C170.431 53.632 170.325 53.4773 170.154 53.392C169.994 53.296 169.711 53.216 169.306 53.152L167.578 52.864C167.002 52.768 166.618 52.496 166.426 52.048C166.245 51.5893 166.154 50.9013 166.154 49.984C166.154 48.832 166.399 48.0267 166.89 47.568C167.391 47.0987 168.159 46.864 169.194 46.864C169.642 46.864 170.09 46.8907 170.538 46.944C170.997 46.9867 171.365 47.0453 171.642 47.12V48.352C170.959 48.2347 170.266 48.176 169.562 48.176C169.125 48.176 168.783 48.208 168.538 48.272C168.293 48.336 168.106 48.4373 167.978 48.576C167.85 48.7147 167.765 48.8907 167.722 49.104C167.679 49.3173 167.658 49.6 167.658 49.952C167.658 50.4 167.679 50.7253 167.722 50.928C167.765 51.12 167.845 51.2587 167.962 51.344C168.09 51.4187 168.298 51.4773 168.586 51.52L170.218 51.792C170.645 51.8667 170.986 51.9893 171.242 52.16C171.509 52.32 171.717 52.592 171.866 52.976C171.994 53.3387 172.058 53.9413 172.058 54.784C172.058 55.648 171.957 56.3253 171.754 56.816C171.562 57.296 171.258 57.6373 170.842 57.84C170.426 58.032 169.861 58.128 169.146 58.128ZM177.568 53.328C177.568 52.592 177.536 52.0693 177.472 51.76C177.419 51.44 177.312 51.232 177.152 51.136C176.992 51.04 176.72 50.992 176.336 50.992C175.92 50.992 175.616 51.088 175.424 51.28C175.243 51.472 175.126 51.7493 175.072 52.112C175.03 52.464 175.008 53.008 175.008 53.744V58H173.584V46.112H175.008V50.8H175.088C175.376 50.0747 176 49.712 176.96 49.712C177.536 49.712 177.968 49.8187 178.256 50.032C178.544 50.2453 178.736 50.5653 178.832 50.992C178.939 51.4187 178.992 52.0107 178.992 52.768V58H177.568V53.328ZM182.387 58.128C181.672 58.128 181.155 57.952 180.835 57.6C180.526 57.2373 180.371 56.6133 180.371 55.728C180.371 55.1093 180.43 54.6293 180.547 54.288C180.675 53.936 180.883 53.6853 181.171 53.536C181.47 53.376 181.886 53.296 182.419 53.296C182.899 53.296 183.544 53.3173 184.355 53.36V52.848C184.355 52.2293 184.312 51.792 184.227 51.536C184.142 51.2693 183.987 51.0987 183.763 51.024C183.55 50.9493 183.182 50.912 182.659 50.912C182.211 50.912 181.576 50.96 180.755 51.056V49.952C181.47 49.792 182.238 49.712 183.059 49.712C183.827 49.712 184.403 49.808 184.787 50C185.171 50.192 185.432 50.512 185.571 50.96C185.71 51.3973 185.779 52.0373 185.779 52.88V58H184.483L184.419 56.928H184.323C184.163 57.408 183.912 57.728 183.571 57.888C183.23 58.048 182.835 58.128 182.387 58.128ZM182.931 56.928C183.23 56.928 183.475 56.8907 183.667 56.816C183.859 56.7413 184.008 56.5867 184.115 56.352C184.275 55.9787 184.355 55.456 184.355 54.784V54.288H182.819C182.52 54.288 182.296 54.32 182.147 54.384C182.008 54.448 181.912 54.5707 181.859 54.752C181.806 54.9333 181.779 55.2213 181.779 55.616C181.779 55.9893 181.806 56.2667 181.859 56.448C181.923 56.6293 182.035 56.7573 182.195 56.832C182.355 56.896 182.6 56.928 182.931 56.928ZM187.584 49.84H188.864L188.928 50.928H189.024C189.174 50.4587 189.408 50.1387 189.728 49.968C190.059 49.7973 190.448 49.712 190.896 49.712C191.494 49.712 191.947 49.8293 192.256 50.064C192.576 50.2987 192.8 50.7147 192.928 51.312C193.067 51.8987 193.136 52.7627 193.136 53.904C193.136 55.0347 193.072 55.8987 192.944 56.496C192.816 57.0933 192.592 57.5147 192.272 57.76C191.963 58.0053 191.51 58.128 190.912 58.128C190.443 58.128 190.059 58.048 189.76 57.888C189.462 57.7173 189.238 57.4347 189.088 57.04H189.008V61.072H187.584V49.84ZM190.336 56.864C190.774 56.864 191.078 56.8053 191.248 56.688C191.43 56.56 191.552 56.304 191.616 55.92C191.68 55.5253 191.712 54.8587 191.712 53.92C191.712 52.9813 191.68 52.32 191.616 51.936C191.552 51.552 191.43 51.3013 191.248 51.184C191.078 51.056 190.774 50.992 190.336 50.992C189.984 50.992 189.712 51.0613 189.52 51.2C189.328 51.3387 189.195 51.5787 189.12 51.92C189.067 52.144 189.035 52.4 189.024 52.688C189.014 52.9653 189.008 53.376 189.008 53.92C189.008 54.8053 189.035 55.4133 189.088 55.744C189.163 56.16 189.296 56.4533 189.488 56.624C189.68 56.784 189.963 56.864 190.336 56.864ZM194.724 47.632V46.112H196.196V47.632H194.724ZM194.756 58V49.84H196.18V58H194.756ZM202.006 53.328C202.006 52.592 201.974 52.0693 201.91 51.76C201.856 51.44 201.75 51.232 201.59 51.136C201.43 51.04 201.158 50.992 200.774 50.992C200.358 50.992 200.054 51.088 199.862 51.28C199.68 51.472 199.563 51.7493 199.51 52.112C199.467 52.464 199.446 53.008 199.446 53.744V58H198.022V49.84H199.302L199.366 50.928H199.462C199.6 50.5227 199.824 50.2187 200.134 50.016C200.443 49.8133 200.864 49.712 201.398 49.712C201.974 49.712 202.406 49.8187 202.694 50.032C202.982 50.2453 203.174 50.5653 203.27 50.992C203.376 51.4187 203.43 52.0213 203.43 52.8V58H202.006V53.328ZM207.513 61.184C206.766 61.184 206.046 61.136 205.353 61.04V59.936C205.577 59.936 205.859 59.9467 206.201 59.968L207.225 59.984C207.822 59.984 208.249 59.9147 208.505 59.776C208.761 59.6373 208.926 59.392 209.001 59.04C209.086 58.688 209.129 58.1067 209.129 57.296V56.976H209.033C208.894 57.3707 208.675 57.648 208.377 57.808C208.078 57.968 207.694 58.048 207.225 58.048C206.627 58.048 206.169 57.9307 205.849 57.696C205.539 57.4613 205.321 57.0507 205.193 56.464C205.065 55.8773 205.001 55.024 205.001 53.904C205.001 52.7627 205.065 51.8987 205.193 51.312C205.321 50.7147 205.539 50.2987 205.849 50.064C206.169 49.8293 206.627 49.712 207.225 49.712C207.673 49.712 208.057 49.7973 208.377 49.968C208.707 50.1387 208.947 50.4587 209.097 50.928H209.193L209.257 49.84H210.553V56.864C210.553 58.016 210.489 58.88 210.361 59.456C210.233 60.0427 209.95 60.4747 209.513 60.752C209.086 61.04 208.419 61.184 207.513 61.184ZM207.785 56.8C208.137 56.8 208.403 56.7307 208.585 56.592C208.777 56.4533 208.91 56.2187 208.985 55.888C209.081 55.472 209.129 54.8107 209.129 53.904C209.129 53.008 209.091 52.384 209.016 52.032C208.942 51.648 208.809 51.3813 208.617 51.232C208.435 51.072 208.158 50.992 207.785 50.992C207.347 50.992 207.038 51.056 206.857 51.184C206.686 51.3013 206.569 51.552 206.505 51.936C206.451 52.32 206.424 52.976 206.424 53.904C206.424 54.8213 206.451 55.472 206.505 55.856C206.569 56.24 206.691 56.496 206.873 56.624C207.054 56.7413 207.358 56.8 207.785 56.8ZM215.571 46.992H219.043C219.939 46.992 220.59 47.2267 220.995 47.696C221.4 48.1547 221.603 48.8427 221.603 49.76C221.603 50.5173 221.475 51.104 221.219 51.52C220.963 51.936 220.563 52.2133 220.019 52.352V52.416C220.648 52.5547 221.086 52.8427 221.331 53.28C221.576 53.7067 221.699 54.3093 221.699 55.088C221.699 56.0053 221.496 56.72 221.091 57.232C220.696 57.744 219.998 58 218.995 58H215.571V46.992ZM218.611 51.776C219.134 51.776 219.507 51.648 219.731 51.392C219.966 51.1253 220.083 50.6773 220.083 50.048C220.083 49.5893 220.04 49.2373 219.955 48.992C219.88 48.7467 219.736 48.5707 219.523 48.464C219.31 48.3573 219.006 48.304 218.611 48.304H217.075V51.776H218.611ZM218.659 56.704C219.064 56.704 219.374 56.6507 219.587 56.544C219.811 56.4267 219.966 56.24 220.051 55.984C220.136 55.728 220.179 55.3653 220.179 54.896C220.179 54.2133 220.067 53.7387 219.843 53.472C219.619 53.2053 219.224 53.072 218.659 53.072H217.075V56.704H218.659ZM223.303 49.84H224.583L224.647 51.312H224.743C224.892 50.704 225.132 50.288 225.463 50.064C225.794 49.8293 226.236 49.712 226.791 49.712V51.152C226.258 51.152 225.842 51.2587 225.543 51.472C225.244 51.6747 225.031 52 224.903 52.448C224.786 52.8853 224.727 53.472 224.727 54.208V58H223.303V49.84ZM229.434 58.128C228.719 58.128 228.202 57.952 227.882 57.6C227.573 57.2373 227.418 56.6133 227.418 55.728C227.418 55.1093 227.477 54.6293 227.594 54.288C227.722 53.936 227.93 53.6853 228.218 53.536C228.517 53.376 228.933 53.296 229.466 53.296C229.946 53.296 230.591 53.3173 231.402 53.36V52.848C231.402 52.2293 231.359 51.792 231.274 51.536C231.189 51.2693 231.034 51.0987 230.81 51.024C230.597 50.9493 230.229 50.912 229.706 50.912C229.258 50.912 228.623 50.96 227.802 51.056V49.952C228.517 49.792 229.285 49.712 230.106 49.712C230.874 49.712 231.45 49.808 231.834 50C232.218 50.192 232.479 50.512 232.618 50.96C232.757 51.3973 232.826 52.0373 232.826 52.88V58H231.53L231.466 56.928H231.37C231.21 57.408 230.959 57.728 230.618 57.888C230.277 58.048 229.882 58.128 229.434 58.128ZM229.978 56.928C230.277 56.928 230.522 56.8907 230.714 56.816C230.906 56.7413 231.055 56.5867 231.162 56.352C231.322 55.9787 231.402 55.456 231.402 54.784V54.288H229.866C229.567 54.288 229.343 54.32 229.194 54.384C229.055 54.448 228.959 54.5707 228.906 54.752C228.853 54.9333 228.826 55.2213 228.826 55.616C228.826 55.9893 228.853 56.2667 228.906 56.448C228.97 56.6293 229.082 56.7573 229.242 56.832C229.402 56.896 229.647 56.928 229.978 56.928ZM238.615 53.328C238.615 52.592 238.583 52.0693 238.519 51.76C238.466 51.44 238.359 51.232 238.199 51.136C238.039 51.04 237.767 50.992 237.383 50.992C236.967 50.992 236.663 51.088 236.471 51.28C236.29 51.472 236.172 51.7493 236.119 52.112C236.076 52.464 236.055 53.008 236.055 53.744V58H234.631V49.84H235.911L235.975 50.928H236.071C236.21 50.5227 236.434 50.2187 236.743 50.016C237.052 49.8133 237.474 49.712 238.007 49.712C238.583 49.712 239.015 49.8187 239.303 50.032C239.591 50.2453 239.783 50.5653 239.879 50.992C239.986 51.4187 240.039 52.0213 240.039 52.8V58H238.615V53.328ZM243.834 58.128C243.237 58.128 242.778 58.0107 242.458 57.776C242.149 57.5413 241.93 57.1307 241.802 56.544C241.674 55.9467 241.61 55.0773 241.61 53.936C241.61 52.8053 241.674 51.9413 241.802 51.344C241.93 50.7467 242.149 50.3253 242.458 50.08C242.767 49.8347 243.221 49.712 243.818 49.712C244.298 49.712 244.687 49.7973 244.986 49.968C245.285 50.128 245.509 50.4 245.658 50.784H245.738V46.112H247.162V58H245.866L245.802 56.928H245.706C245.567 57.3973 245.333 57.7173 245.002 57.888C244.682 58.048 244.293 58.128 243.834 58.128ZM244.41 56.848C244.751 56.848 245.013 56.7893 245.194 56.672C245.386 56.544 245.519 56.3307 245.594 56.032C245.658 55.7867 245.695 55.504 245.706 55.184C245.727 54.8533 245.738 54.4053 245.738 53.84C245.738 52.9973 245.706 52.3947 245.642 52.032C245.567 51.648 245.434 51.376 245.242 51.216C245.05 51.056 244.762 50.976 244.378 50.976C243.962 50.976 243.663 51.04 243.482 51.168C243.301 51.296 243.178 51.5573 243.114 51.952C243.061 52.336 243.034 52.992 243.034 53.92C243.034 54.8587 243.066 55.52 243.13 55.904C243.194 56.288 243.311 56.544 243.482 56.672C243.663 56.7893 243.973 56.848 244.41 56.848ZM251.086 58.128C250.734 58.128 250.344 58.1067 249.918 58.064C249.491 58.0213 249.128 57.9733 248.83 57.92V56.8C249.47 56.896 250.147 56.944 250.862 56.944C251.235 56.944 251.518 56.9013 251.71 56.816C251.902 56.7307 252.024 56.608 252.078 56.448C252.142 56.2773 252.174 56.0427 252.174 55.744C252.174 55.392 252.152 55.1413 252.11 54.992C252.078 54.832 252.014 54.7307 251.918 54.688C251.822 54.6347 251.656 54.592 251.422 54.56L249.886 54.336C249.416 54.2613 249.091 54.064 248.91 53.744C248.728 53.4133 248.638 52.8693 248.638 52.112C248.638 51.184 248.851 50.5547 249.278 50.224C249.715 49.8827 250.36 49.712 251.214 49.712C251.566 49.712 251.928 49.7333 252.302 49.776C252.686 49.8187 252.99 49.872 253.214 49.936V51.056C252.68 50.9493 252.056 50.896 251.342 50.896C250.862 50.896 250.526 50.976 250.334 51.136C250.142 51.2853 250.046 51.5947 250.046 52.064C250.046 52.384 250.062 52.6187 250.094 52.768C250.136 52.9067 250.2 53.0027 250.286 53.056C250.382 53.1093 250.536 53.152 250.75 53.184L252.158 53.376C252.488 53.4187 252.75 53.5093 252.942 53.648C253.144 53.776 253.299 54 253.406 54.32C253.512 54.6293 253.566 55.0827 253.566 55.68C253.566 56.608 253.368 57.248 252.974 57.6C252.579 57.952 251.95 58.128 251.086 58.128Z" fill="white"/>
</svg>
