<svg width="1440" height="804" viewBox="0 0 1440 804" fill="none" xmlns="http://www.w3.org/2000/svg">
<g clip-path="url(#clip0_13_12)">
<rect width="1440" height="804" fill="#1B1B1B"/>
<path fill-rule="evenodd" clip-rule="evenodd" d="M-104 775.369L-42 832.369C-20 854.369 38 864.163 108 799.5C178 734.837 196 699.868 240 675.869C284 651.869 340 799.5 383 805.206C426 810.912 480 817.806 534 734.837C588 651.869 645 725.869 689 761.869C732 797.869 754 812.869 797 761.869C841 711.869 886 658.369 929 608.369C973 557.369 1017 557.369 1060 593.369C1104 629.369 1147 653.869 1190 675.869C1234 696.869 1254 704.237 1310 651.869C1366 599.5 1402 695.869 1452 761.869C1502 827.868 1474 639.869 1474 639.869V1289.87H1452C1430 1289.87 1387 1289.87 1343 1289.87C1299 1289.87 1256 1289.87 1212 1289.87C1169 1289.87 1125 1289.87 1081 1289.87C1038 1289.87 994 1289.87 950 1289.87C907 1289.87 863 1289.87 819 1289.87C776 1289.87 732 1289.87 689 1289.87C645 1289.87 601 1289.87 558 1289.87C514 1289.87 470 1289.87 427 1289.87C383 1289.87 339 1289.87 296 1289.87C252 1289.87 209 1289.87 165 1289.87C121 1289.87 78 1289.87 56 1289.87H34L-104 775.369Z" fill="url(#paint0_linear_13_12)"/>
</g>
<defs>
<linearGradient id="paint0_linear_13_12" x1="730" y1="548.737" x2="719.999" y2="1777.74" gradientUnits="userSpaceOnUse">
<stop stop-color="#CEF62E"/>
<stop offset="0.953379" stop-color="#1B1B1B"/>
</linearGradient>
<clipPath id="clip0_13_12">
<rect width="1440" height="804" fill="white"/>
</clipPath>
</defs>
</svg>
